<?xml version="1.0" standalone="no"?>
<!DOCTYPE svg PUBLIC "-//W3C//DTD SVG 20010904//EN"
 "http://www.w3.org/TR/2001/REC-SVG-20010904/DTD/svg10.dtd">
<svg version="1.0" xmlns="http://www.w3.org/2000/svg"
 width="590.000000pt" height="639.000000pt" viewBox="0 0 590.000000 639.000000"
 preserveAspectRatio="xMidYMid meet">
<metadata>
Created by potrace 1.15, written by Peter Selinger 2001-2017
</metadata>
<g transform="translate(0.000000,639.000000) scale(0.100000,-0.100000)"
fill="#000000" stroke="none">
<path d="M2840 6039 c-276 -36 -515 -103 -770 -217 -256 -114 -410 -213 -582
-372 -78 -72 -244 -271 -287 -345 -110 -186 -190 -389 -233 -590 -65 -304 -62
-700 7 -963 15 -59 14 -92 -3 -65 -16 25 -79 53 -120 53 -58 0 -95 -24 -124
-79 -20 -40 -23 -59 -22 -146 1 -81 6 -113 27 -170 66 -180 67 -183 101 -350
6 -29 30 -94 55 -148 12 -26 33 -97 46 -157 40 -177 80 -263 139 -299 37 -23
105 -28 124 -9 6 6 13 10 15 7 2 -2 16 -62 31 -134 72 -342 112 -470 188 -600
58 -98 161 -235 250 -331 71 -77 76 -85 87 -146 6 -36 11 -88 11 -117 0 -140
-95 -347 -200 -438 -77 -67 -122 -91 -640 -347 l-155 -76 67 0 c60 0 79 6 195
59 194 89 390 189 463 236 128 82 223 206 270 351 36 112 45 196 31 289 -5 38
-9 70 -8 71 1 1 66 -46 145 -105 78 -59 168 -123 198 -142 31 -19 131 -83 222
-142 260 -169 367 -216 537 -237 94 -12 303 -6 410 11 178 29 401 143 677 346
103 77 325 259 347 286 7 9 16 17 20 17 3 0 6 -69 6 -152 1 -186 17 -264 79
-392 79 -160 238 -332 419 -452 61 -40 73 -45 118 -42 l49 3 -107 70 c-114 75
-289 234 -355 323 -56 76 -125 225 -144 312 -18 83 -24 258 -11 333 7 40 20
62 71 120 132 151 197 259 280 460 58 140 84 225 126 423 15 75 30 138 33 141
3 2 14 0 25 -6 57 -30 132 2 178 76 32 52 69 171 84 273 7 47 26 118 42 158
16 40 36 108 44 150 8 42 34 151 59 242 83 309 81 426 -8 480 -36 23 -134 27
-169 9 -20 -11 -21 -9 -14 22 16 82 36 304 36 410 0 405 -86 784 -239 1054
-68 121 -141 215 -269 347 -162 167 -323 285 -532 391 -155 78 -379 163 -492
186 -23 5 -86 18 -138 29 -52 11 -144 25 -204 31 -125 13 -390 13 -486 0z
m480 -59 c295 -36 585 -120 815 -237 137 -69 171 -90 291 -178 308 -228 510
-490 607 -790 83 -256 107 -425 109 -764 2 -213 -4 -292 -38 -516 l-6 -40 38
36 c22 20 49 42 61 48 54 27 143 -2 163 -55 12 -31 12 -184 1 -239 -5 -22 -24
-94 -43 -160 -20 -66 -43 -163 -52 -215 -10 -52 -29 -127 -42 -165 -13 -39
-35 -122 -48 -185 -38 -184 -82 -281 -139 -308 -36 -18 -83 -7 -103 24 -9 13
-20 24 -24 24 -4 0 -31 -95 -59 -211 -134 -551 -281 -791 -690 -1122 -235
-192 -344 -269 -506 -360 -207 -117 -312 -146 -541 -154 -287 -10 -416 28
-667 196 -56 37 -163 108 -237 156 -264 171 -458 326 -553 440 -142 171 -242
338 -293 492 -28 87 -94 364 -94 403 -1 30 -23 116 -32 126 -4 3 -17 -1 -30
-10 -32 -22 -90 -20 -121 5 -38 29 -82 128 -112 254 -14 61 -42 148 -61 195
-19 47 -46 136 -60 198 -14 63 -44 171 -67 240 -37 114 -41 137 -42 229 0 99
1 102 29 132 48 50 117 37 208 -40 26 -21 51 -39 56 -39 5 0 1 37 -10 83 -55
247 -75 600 -48 833 23 202 102 478 181 636 136 272 363 515 624 671 208 123
380 202 571 262 66 20 130 40 144 45 28 10 91 22 235 46 55 8 107 17 115 19
40 8 396 4 470 -5z"/>
<path d="M5231 3293 c-27 -37 -59 -87 -72 -112 -12 -25 -44 -81 -72 -124 -27
-42 -49 -87 -48 -100 0 -12 4 -56 7 -98 5 -69 3 -83 -21 -137 -15 -33 -25 -72
-23 -88 3 -26 6 -23 35 37 18 36 46 81 63 100 37 41 45 69 35 117 -13 60 -10
113 9 172 20 64 94 220 126 268 40 58 11 33 -39 -35z"/>
<path d="M883 3285 c37 -56 84 -172 92 -225 4 -25 14 -69 22 -98 8 -29 12 -59
9 -67 -8 -23 20 -102 50 -142 15 -20 38 -62 51 -92 33 -81 31 -24 -3 65 -24
63 -25 77 -20 160 6 84 5 91 -15 110 -11 10 -47 73 -79 139 -38 80 -70 132
-95 155 l-38 35 26 -40z"/>
</g>
</svg>
